<?xml version="1.0" encoding="UTF-8" standalone="no"?>
<!-- Created with Inkscape (http://www.inkscape.org/) -->

<svg
   width="210mm"
   height="297mm"
   viewBox="0 0 210 297"
   version="1.1"
   id="svg5"
   xml:space="preserve"
   inkscape:version="1.2.2 (732a01da63, 2022-12-09)"
   sodipodi:docname="Planinaranje.svg"
   xmlns:inkscape="http://www.inkscape.org/namespaces/inkscape"
   xmlns:sodipodi="http://sodipodi.sourceforge.net/DTD/sodipodi-0.dtd"
   xmlns="http://www.w3.org/2000/svg"
   xmlns:svg="http://www.w3.org/2000/svg"><sodipodi:namedview
     id="namedview7"
     pagecolor="#ffffff"
     bordercolor="#000000"
     borderopacity="0.25"
     inkscape:showpageshadow="2"
     inkscape:pageopacity="0.0"
     inkscape:pagecheckerboard="0"
     inkscape:deskcolor="#d1d1d1"
     inkscape:document-units="mm"
     showgrid="false"
     inkscape:zoom="0.71624579"
     inkscape:cx="30.017628"
     inkscape:cy="679.2361"
     inkscape:window-width="1920"
     inkscape:window-height="991"
     inkscape:window-x="-9"
     inkscape:window-y="-9"
     inkscape:window-maximized="1"
     inkscape:current-layer="layer1" /><defs
     id="defs2" /><g
     inkscape:label="Layer 1"
     inkscape:groupmode="layer"
     id="layer1"><ellipse
       style="fill:#1a1a1a;stroke:#ffffff;stroke-width:0.243;stroke-linecap:round;paint-order:stroke fill markers"
       id="path241"
       ry="15.514925"
       rx="14.406716"
       cy="89.395523"
       cx="96.044777" /><g
       id="path295"
       inkscape:transform-center-x="-0.38392816"
       inkscape:transform-center-y="-0.73947211"
       transform="translate(55.410448,42.850746)"
       style="fill:#1a1a1a"><path
         style="color:#000000;fill:#1a1a1a;stroke-width:0.243;stroke-linecap:round;-inkscape-stroke:none;paint-order:stroke fill markers"
         d="M 49.499998,87.548498 44.178764,124.04084 8.3710992,119.56109 14.431298,96.523918 c 0,0 0.492957,-15.539597 9.064512,-29.249082 2.779664,-4.44584 4.962558,-5.73601 13.674425,-5.876718 12.2172,-0.197324 31.41489,30.631929 31.41489,30.631929 l 30.684419,3.45669 c 0,0 1.249466,-0.737601 -0.525189,10.307543 -20.59033,0.094 -36.623572,-4.17137 -36.623572,-4.17137 z"
         id="path456"
         sodipodi:nodetypes="ccccssccccc" /></g><g
       id="path519"
       inkscape:transform-center-x="0.34622967"
       inkscape:transform-center-y="-0.094810424"
       transform="translate(35.462687,5.9104477)"
       style="fill:#1a1a1a"><path
         style="color:#000000;fill:#1a1a1a;stroke-width:0.243;stroke-linecap:round;-inkscape-stroke:none;paint-order:stroke fill markers"
         d="m 70.92537,221.64178 -7.350061,-37.50587 -16.292916,-12.6625 -1.978628,21.83981 -18.572734,27.31015 -11.971727,-4.93977 16.027409,-26.92378 -0.07264,-20.95175 1.137412,-11.81066 27.284249,0.64465 15.418615,14.09139 6.038662,14.12784 3.317563,35.93166 z"
         id="path312"
         sodipodi:nodetypes="cccccccccccccc" /></g><g
       id="path556"
       inkscape:transform-center-x="0.8095425"
       inkscape:transform-center-y="-1.088124"
       transform="matrix(0.8079958,0,0,1,11.474507,-0.73880597)"
       style="fill:#1a1a1a"><path
         style="color:#000000;fill:#1a1a1a;stroke-width:0.243;stroke-linecap:round;-inkscape-stroke:none;paint-order:stroke fill markers"
         d="m 64.276121,163.27612 c 0,0 -7.517605,3.23178 -12.91557,-1.69076 -5.776646,-5.26787 -7.965356,-11.15656 -6.94837,-18.90807 1.184949,-9.03173 2.921128,-16.46249 8.906566,-23.32913 5.576942,-6.398 5.802324,-7.70099 13.982316,-9.96471 5.905845,-1.63438 11.700008,1.12086 11.700008,1.12086 L 71.05414,135.9417 Z"
         id="path562"
         sodipodi:nodetypes="cssssccc" /></g><g
       id="path618"
       inkscape:transform-center-x="-6.8682988"
       inkscape:transform-center-y="0.33563237"
       transform="matrix(0.9921917,0.1247222,-0.1080131,0.85926723,30.035383,-88.050875)"><path
         style="color:#000000;fill:#1a1a1a;stroke-width:0.243;stroke-linecap:round;-inkscape-stroke:none;paint-order:stroke fill markers"
         d="m 154.77985,348.66977 -2.47344,0.0114 c -1.35242,-31.80255 -7.83081,-114.02572 -7.83081,-114.02572 4.47705,0.0885 -4.87591,0.17707 6.78354,0.2656 z"
         id="path624"
         sodipodi:nodetypes="ccccc" /></g></g></svg>
