<?xml version="1.0" encoding="UTF-8" standalone="no"?>
<!-- Created with Inkscape (http://www.inkscape.org/) -->

<svg
   width="210mm"
   height="297mm"
   viewBox="0 0 210 297"
   version="1.1"
   id="svg5"
   inkscape:version="1.2.2 (732a01da63, 2022-12-09)"
   sodipodi:docname="prirodna bogatstva - Copy.svg"
   inkscape:export-filename="restoran.png"
   inkscape:export-xdpi="103.05143"
   inkscape:export-ydpi="103.05143"
   xmlns:inkscape="http://www.inkscape.org/namespaces/inkscape"
   xmlns:sodipodi="http://sodipodi.sourceforge.net/DTD/sodipodi-0.dtd"
   xmlns="http://www.w3.org/2000/svg"
   xmlns:svg="http://www.w3.org/2000/svg">
  <sodipodi:namedview
     id="namedview7"
     pagecolor="#ffffff"
     bordercolor="#000000"
     borderopacity="0.25"
     inkscape:showpageshadow="2"
     inkscape:pageopacity="0.0"
     inkscape:pagecheckerboard="0"
     inkscape:deskcolor="#d1d1d1"
     inkscape:document-units="mm"
     showgrid="false"
     inkscape:zoom="0.70910507"
     inkscape:cx="105.062"
     inkscape:cy="607.10326"
     inkscape:window-width="1920"
     inkscape:window-height="991"
     inkscape:window-x="-9"
     inkscape:window-y="-9"
     inkscape:window-maximized="1"
     inkscape:current-layer="layer1" />
  <defs
     id="defs2" />
  <g
     inkscape:label="Layer 1"
     inkscape:groupmode="layer"
     id="layer1">
    <g
       id="g325"
       transform="translate(3.2728898,-7.0449003)">
      <path
         id="path796-9-4"
         style="fill:#666666;fill-opacity:0.336864;stroke:#000000;stroke-width:0.241228;stroke-opacity:0"
         d="m 182.98054,222.46652 c -17.09149,9.37104 -78.41552,7.84221 -78.41552,7.84221 0,0 15.49562,-42.64691 32.58711,-52.01796 17.09149,-9.37104 40.96654,-7.30947 53.96457,5.21984 12.99803,12.52928 8.95533,29.58485 -8.13616,38.95591 z"
         sodipodi:nodetypes="scsss" />
    </g>
    <path
       id="path796-9"
       style="fill:#d35f8d;fill-opacity:1;stroke:#000000;stroke-width:1.037;stroke-dasharray:none"
       d="m 181.41403,92.322218 c 0,40.606832 -73.22736,131.076362 -73.22736,131.076362 0,0 -71.14178,-90.46953 -71.14178,-131.076362 0,-40.606839 31.56399,-73.52519 72.51053,-73.525188 40.94651,4e-6 71.85861,32.918349 71.85861,73.525188 z"
       sodipodi:nodetypes="scsss" />
    <ellipse
       style="fill:#ffffff;stroke:#000000;stroke-width:0.67811"
       id="path3193-8"
       cx="109.05181"
       cy="92.045479"
       rx="63.131382"
       ry="65.261703" />
    <path
       id="path1086"
       style="fill:#000000;stroke:#000000;stroke-width:0.393853;stroke-linecap:round;paint-order:stroke fill markers"
       inkscape:transform-center-x="0.079160932"
       inkscape:transform-center-y="-1.5274336"
       d="M 136.60677,107.46405 84.307338,106.9922 c 0,0 1.030655,-8.10083 -0.167732,-11.942453 -1.050929,-3.3689 -5.9573,-9.095704 -5.9573,-9.095704 l 58.750754,0.222015 z"
       sodipodi:nodetypes="ccsccc" />
    <path
       id="path1086-8"
       style="fill:#ffffff;stroke:#000000;stroke-width:0.322902;stroke-linecap:round;paint-order:stroke fill markers"
       inkscape:transform-center-x="0.066926402"
       inkscape:transform-center-y="-1.2143246"
       d="m 132.78779,104.43412 -44.217267,-0.37514 c 0,0 0.02913,-7.518351 -0.952647,-10.582871 -1.293938,-4.038922 -4.225844,-6.142751 -4.225844,-6.142751 l 49.671628,0.176508 z"
       sodipodi:nodetypes="ccsccc" />
    <path
       id="rect1089"
       style="fill:#000000;stroke:#000000;stroke-width:0.208344;stroke-linecap:round;paint-order:stroke fill markers"
       d="m 66.060982,80.897831 c 14.519178,0.455754 49.970598,0 49.970598,0 v 5.277823 c 0,0 -33.989558,0.260788 -49.970598,0 -1.794352,-0.02927 -1.793685,-5.334123 0,-5.277823 z"
       sodipodi:nodetypes="sccss" />
    <ellipse
       style="fill:#000000;stroke:#000000;stroke-width:0.292072;stroke-linecap:round;paint-order:stroke fill markers"
       id="path639-7"
       cx="79.466446"
       cy="106.68829"
       rx="14.07042"
       ry="14.151673" />
    <ellipse
       style="fill:#ffffff;stroke:#000000;stroke-width:0.190966;stroke-linecap:round;paint-order:stroke fill markers"
       id="path639-7-9"
       cx="79.152557"
       cy="106.96626"
       rx="9.3098164"
       ry="9.1433754" />
    <ellipse
       style="fill:#000000;stroke:#000000;stroke-width:0.292072;stroke-linecap:round;paint-order:stroke fill markers"
       id="path639"
       cx="137.20998"
       cy="108.83791"
       rx="14.07042"
       ry="14.151673" />
    <path
       id="path1843"
       style="stroke:#000000;stroke-width:0.319358;stroke-linecap:round;paint-order:stroke fill markers"
       inkscape:transform-center-x="3.8182137e-06"
       inkscape:transform-center-y="-2.0391828e-06"
       d="m 107.28855,110.75392 c -5.23809,0.10389 -0.93123,-11.306 -3.0177,-16.560795 -2.27484,-5.729267 -18.350525,-9.617993 -12.351586,-11.4106 11.412516,-3.410313 26.509716,-12.463389 31.315536,-10.418087 5.2763,2.245541 13.89575,5.974323 20.21734,10.182684 4.74926,3.161639 -25.54359,4.863066 -21.84521,24.567688 1.0504,5.59639 -8.53067,3.52429 -14.31838,3.63911 z"
       sodipodi:nodetypes="sssssss" />
    <path
       id="path1846"
       style="stroke:#000000;stroke-width:0.334796;stroke-linecap:round;paint-order:stroke fill markers"
       inkscape:transform-center-y="-6.0332373e-06"
       d="m 119.65486,76.072443 -4.26026,-0.341366 -2.40966,-8.198514 -9.09837,-4.376252 2.57626,-2.887691 11.66113,4.853188 z"
       sodipodi:nodetypes="ccccccc"
       inkscape:transform-center-x="-1.9980342e-06" />
    <ellipse
       style="fill:#ffffff;stroke:#000000;stroke-width:0.190966;stroke-linecap:round;paint-order:stroke fill markers"
       id="path639-7-9-2"
       cx="137.75916"
       cy="108.88095"
       rx="9.3098164"
       ry="9.1433754" />
  </g>
</svg>
