<?xml version="1.0" encoding="UTF-8" standalone="no"?>
<!-- Created with Inkscape (http://www.inkscape.org/) -->

<svg
   width="210mm"
   height="297mm"
   viewBox="0 0 210 297"
   version="1.1"
   id="svg5"
   inkscape:version="1.2.2 (732a01da63, 2022-12-09)"
   sodipodi:docname="ribolov.svg"
   xmlns:inkscape="http://www.inkscape.org/namespaces/inkscape"
   xmlns:sodipodi="http://sodipodi.sourceforge.net/DTD/sodipodi-0.dtd"
   xmlns="http://www.w3.org/2000/svg"
   xmlns:svg="http://www.w3.org/2000/svg">
  <sodipodi:namedview
     id="namedview7"
     pagecolor="#ffffff"
     bordercolor="#000000"
     borderopacity="0.25"
     inkscape:showpageshadow="2"
     inkscape:pageopacity="0.0"
     inkscape:pagecheckerboard="0"
     inkscape:deskcolor="#d1d1d1"
     inkscape:document-units="mm"
     showgrid="false"
     inkscape:zoom="0.61580177"
     inkscape:cx="262.25972"
     inkscape:cy="369.43707"
     inkscape:window-width="1920"
     inkscape:window-height="991"
     inkscape:window-x="-9"
     inkscape:window-y="-9"
     inkscape:window-maximized="1"
     inkscape:current-layer="layer1" />
  <defs
     id="defs2" />
  <g
     inkscape:label="Layer 1"
     inkscape:groupmode="layer"
     id="layer1">
    <path
       id="path453"
       style="stroke:#000000;stroke-width:0.389697;stroke-linecap:round;paint-order:stroke fill markers;fill:#000000"
       d="m 130.6356,87.932368 c -20.44903,18.097092 -36.248694,34.540162 -35.689698,42.219872 0.996836,13.69506 15.179798,33.24959 15.179798,33.24959 7.57468,0.14616 38.5763,30.0628 38.5763,30.0628 0,0 -16.64024,-0.0326 -33.91549,-12.22415 l 0.61198,19.27829 c 0,0 -17.610041,-14.90304 -14.53038,-28.06949 2.59722,-8.71574 -20.06136,-18.26606 -28.567829,-23.47621 C 63.60469,143.64707 58.326117,126.7657 59.81355,116.67773 61.396532,105.94172 77.643281,92.545348 85.900101,86.9212 98.036548,78.654437 120.48737,82.350508 130.6356,87.932368 Z"
       sodipodi:nodetypes="cscccccsssc" />
    <ellipse
       style="fill:#ffffff;stroke:#000000;stroke-width:0.243;stroke-linecap:round;paint-order:stroke fill markers"
       id="path514"
       cx="140.16298"
       cy="25.184368"
       rx="1.6030194"
       ry="2.2442269"
       transform="rotate(30.136524)" />
    <path
       id="path568"
       style="fill:#ffffff;stroke:#000000;stroke-width:0.161098;stroke-linecap:round;paint-order:stroke fill markers"
       d="m 90.729497,89.687243 a 16.206353,8.592555 30.136524 0 0 9.826043,15.323377 16.206353,8.592555 30.136524 0 0 5.77637,2.5651 c -0.30779,-0.30064 -0.61331,-0.60317 -0.91751,-0.90632 -0.21606,-0.22603 -0.43414,-0.45049 -0.65161,-0.67545 -0.45188,-0.41592 -0.88095,-0.84836 -1.29119,-1.29336 -0.0186,-0.011 -0.0373,-0.0218 -0.056,-0.0327 -0.81626,-0.48646 -1.6308,-0.97644 -2.43261,-1.48586 -0.92566,-0.5916 -1.848091,-1.19233 -2.71013,-1.86764 -0.69033,-0.538 -1.360378,-1.09593 -1.921066,-1.747986 -0.554545,-0.630905 -1.144327,-1.245159 -1.57497,-1.943873 C 94.468602,97.110822 94.190377,96.589258 93.878853,96.078725 93.5511,95.51874 93.259946,94.94477 93.00999,94.363983 92.690762,93.68542 92.419381,92.998616 92.328683,92.296539 c -0.01399,-0.109157 -0.02623,-0.218503 -0.0394,-0.327861 -0.525018,-0.733652 -1.043815,-1.469765 -1.523488,-2.223961 -0.01247,-0.01902 -0.02407,-0.03836 -0.03636,-0.0574 z" />
    <path
       id="path792"
       style="fill:#000000;stroke:#000000;stroke-width:0.243;stroke-linecap:round;paint-order:stroke fill markers"
       inkscape:transform-center-x="-1.3047989"
       inkscape:transform-center-y="1.0191484"
       d="m 47.31761,83.921609 c 12.046998,10.566615 29.266654,7.858027 29.266654,7.858027 0,0 -15.344586,13.932794 -17.1582,18.615804 -3.50445,9.04894 -18.983687,-32.504201 -12.108454,-26.473831 z"
       sodipodi:nodetypes="scss" />
    <path
       id="path795"
       style="stroke:#000000;stroke-width:0.136388;stroke-linecap:round;paint-order:stroke fill markers;fill:#000000"
       inkscape:transform-center-x="0.64882266"
       inkscape:transform-center-y="-0.83058189"
       d="m 107.94072,121.53151 -7.54653,-1.28701 5.71973,-6.2705 z" />
    <path
       id="path795-8"
       style="stroke:#000000;stroke-width:0.0905802;stroke-linecap:round;paint-order:stroke fill markers;fill:#000000"
       inkscape:transform-center-x="0.06439481"
       inkscape:transform-center-y="-0.4541907"
       d="m 101.04889,125.93962 -4.822978,1.55876 2.604665,-5.84264 z" />
    <rect
       style="fill:#000000;stroke:#000000;stroke-width:0.243;stroke-linecap:round;paint-order:stroke fill markers"
       id="rect937"
       width="1.4961514"
       height="68.82296"
       x="154.10359"
       y="13.8394" />
    <ellipse
       style="fill:#000000;stroke:#000000;stroke-width:0.243;stroke-linecap:round;paint-order:stroke fill markers"
       id="path939"
       cx="154.66466"
       cy="63.960472"
       rx="8.0418139"
       ry="7.854795" />
    <path
       id="path949"
       style="stroke:#000000;stroke-width:0.243;stroke-linecap:round;paint-order:stroke fill markers"
       inkscape:transform-center-x="1.8566414e-06"
       inkscape:transform-center-y="-1.6775744e-06"
       d="m 152.70743,96.801711 c -2.33312,2.18272 -4.9381,2.35577 -7.90087,1.16008 -3.41918,-1.37989 -3.41105,-3.48447 -4.74363,-6.92236 -2.34461,-6.048777 -2.69412,-19.028437 -2.69412,-19.028437 6.64093,0.16183 0.92949,0.32366 3.10972,0.48548 0,0 0.38637,8.70688 1.33764,13.39559 0.82777,4.07998 1.98715,9.605997 5.85536,9.466867 4.04866,-0.14562 6.43128,-5.559327 6.30828,-10.388507 -0.12725,-4.99627 0.1049,-13.70318 0.1049,-13.70318 l 2.69754,0.47252 c 0,0 2.66028,18.761017 -4.07482,25.061947 z"
       sodipodi:nodetypes="sssccsssccs" />
  </g>
</svg>
